# xmcd
#
# Track frame offsets:
#	150
#	20747
#	39090
#	53001
#	78204
#	98201
#	114073
#	135602
#	150002
#	171587
#	194133
#	217053
#	238865
#	259782
#	278719
#
# Disc length: 4115 seconds
#
# Revision: 2
# Processed by: cddbd v1.4PL0 Copyright (c) Steve Scherf et al.
# Submitted via: MusicManager 7.0.3.0 
#
DISCID=c710110f
DTITLE=Neville Brothers - Greatest Hits
DYEAR=1998
DGENRE=
TTITLE0=Brother Blood
TTITLE1=Yellow Moon
TTITLE2=Louisiana 1927
TTITLE3=Brother John- Iko Iko
TTITLE4=Everybody Plays The Fool
TTITLE5=Sister Rosa
TTITLE6=Fly Like An Eagle
TTITLE7=Close Your Eyes
TTITLE8=Brother Jake
TTITLE9=Use Me
TTITLE10=Bird On A Wire
TTITLE11=Family Groove
TTITLE12=Don't Take Away My Heaven
TTITLE13=My Blood
TTITLE14=With God On Our Side
EXTD=
EXTT0=
EXTT1=
EXTT2=
EXTT3=
EXTT4=
EXTT5=
EXTT6=
EXTT7=
EXTT8=
EXTT9=
EXTT10=
EXTT11=
EXTT12=
EXTT13=
EXTT14=
PLAYORDER=
